<svg width="31" height="30" viewBox="0 0 31 30" fill="none" xmlns="http://www.w3.org/2000/svg">
<rect x="0.5" width="30" height="30" rx="4" fill="#EBFFED"/>
<path d="M4.53157 15.2112H6.61537V26.3248C6.61537 26.7138 6.921 27.0194 7.30997 27.0194H25.3695C25.7585 27.0194 26.0641 26.7138 26.0641 26.3248V15.2112H28.1479C28.7592 15.2112 29.0648 14.461 28.6479 14.0166L16.8398 2.20844C16.5618 1.93052 16.1174 1.93052 15.8672 2.20844L4.03176 14.0166C3.61489 14.461 3.92051 15.2112 4.53177 15.2112H4.53157ZM16.3397 3.68089L26.4809 13.822H25.3696C24.9807 13.822 24.675 14.1277 24.675 14.5166V25.6302H8.00466V14.5166C8.00466 14.1277 7.69903 13.822 7.31007 13.822H6.19881L16.3397 3.68089Z" fill="#58D365" fill-opacity="0.7"/>
</svg>
